<svg width="110" height="38" viewBox="0 0 110 38" fill="none" xmlns="http://www.w3.org/2000/svg">
<path d="M72.8351 32.5631L72.8111 27.9381L84.9221 27.8753L84.9461 32.5002L72.8351 32.5631ZM48.6132 32.6887L48.5892 28.0638L60.7002 28.001L60.7242 32.6259L48.6132 32.6887ZM24.3913 32.8144L24.3673 28.1895L36.4783 28.1266L36.5023 32.7516L24.3913 32.8144ZM72.7151 9.43837L72.6911 4.81343L84.8021 4.7506L84.8261 9.37554L72.7151 9.43837ZM48.4932 9.56404L48.4693 4.9391L60.5802 4.87627L60.6042 9.5012L48.4932 9.56404ZM24.2714 9.6897L24.2474 5.06476L36.3583 5.00193L36.3823 9.62687L24.2714 9.6897ZM109.168 32.3746L97.057 32.4374L97.033 27.8125L109.144 27.7496L109.048 9.24988L96.937 9.31271L96.913 4.68777L109.024 4.62494L109 0L0.00146608 0.565492L0.0254606 5.19043L12.1364 5.1276L12.1604 9.75253L0.0494551 9.81537L0.145433 28.3151L12.2564 28.2523L12.2804 32.8772L0.169428 32.9401L0.193422 37.565L109.192 36.9995L109.168 32.3746Z" fill="white"/>
<path d="M8.30078 13.8418H10.1582V21.3711H15.4844V23H8.30078V13.8418ZM16.75 18.3945C16.75 17.7031 16.877 17.0703 17.1309 16.4961C17.3848 15.9219 17.7402 15.4297 18.1973 15.0195C18.6582 14.6055 19.209 14.2852 19.8496 14.0586C20.4941 13.832 21.207 13.7188 21.9883 13.7188C22.7656 13.7188 23.4766 13.832 24.1211 14.0586C24.7656 14.2852 25.3164 14.6055 25.7734 15.0195C26.2344 15.4297 26.5918 15.9219 26.8457 16.4961C27.0996 17.0703 27.2266 17.7031 27.2266 18.3945C27.2266 19.0898 27.0996 19.7285 26.8457 20.3105C26.5918 20.8887 26.2344 21.3867 25.7734 21.8047C25.3164 22.2227 24.7656 22.5488 24.1211 22.7832C23.4766 23.0137 22.7656 23.1289 21.9883 23.1289C21.207 23.1289 20.4941 23.0137 19.8496 22.7832C19.209 22.5488 18.6582 22.2227 18.1973 21.8047C17.7402 21.3867 17.3848 20.8887 17.1309 20.3105C16.877 19.7285 16.75 19.0898 16.75 18.3945ZM18.6074 18.3945C18.6074 18.8672 18.6914 19.293 18.8594 19.6719C19.0312 20.0508 19.2676 20.375 19.5684 20.6445C19.873 20.9102 20.2305 21.1152 20.6406 21.2598C21.0547 21.4043 21.5039 21.4766 21.9883 21.4766C22.4727 21.4766 22.9199 21.4043 23.3301 21.2598C23.7441 21.1152 24.1016 20.9102 24.4023 20.6445C24.7031 20.375 24.9395 20.0508 25.1113 19.6719C25.2832 19.293 25.3691 18.8672 25.3691 18.3945C25.3691 17.9219 25.2832 17.498 25.1113 17.123C24.9395 16.748 24.7031 16.4316 24.4023 16.1738C24.1016 15.9121 23.7441 15.7129 23.3301 15.5762C22.9199 15.4395 22.4727 15.3711 21.9883 15.3711C21.5039 15.3711 21.0547 15.4395 20.6406 15.5762C20.2305 15.7129 19.873 15.9121 19.5684 16.1738C19.2676 16.4316 19.0312 16.748 18.8594 17.123C18.6914 17.498 18.6074 17.9219 18.6074 18.3945ZM28.0645 13.8418H30.1211L32.998 20.8262L35.875 13.8418H37.9316L33.918 23H32.0781L28.0645 13.8418ZM39.3086 13.8418H47.1074V15.4707H41.166V17.2988H46.4277V18.8281H41.166V21.377H47.2305V23H39.3086V13.8418ZM53.2832 13.8418H55.1406L58.4688 17.1816L61.7969 13.8418H63.6543V23H61.7969V16.4141L58.4688 19.6191L55.1406 16.4141V23H53.2832V13.8418ZM65.7227 18.3945C65.7227 17.7031 65.8496 17.0703 66.1035 16.4961C66.3574 15.9219 66.7129 15.4297 67.1699 15.0195C67.6309 14.6055 68.1816 14.2852 68.8223 14.0586C69.4668 13.832 70.1797 13.7188 70.9609 13.7188C71.7383 13.7188 72.4492 13.832 73.0938 14.0586C73.7383 14.2852 74.2891 14.6055 74.7461 15.0195C75.207 15.4297 75.5645 15.9219 75.8184 16.4961C76.0723 17.0703 76.1992 17.7031 76.1992 18.3945C76.1992 19.0898 76.0723 19.7285 75.8184 20.3105C75.5645 20.8887 75.207 21.3867 74.7461 21.8047C74.2891 22.2227 73.7383 22.5488 73.0938 22.7832C72.4492 23.0137 71.7383 23.1289 70.9609 23.1289C70.1797 23.1289 69.4668 23.0137 68.8223 22.7832C68.1816 22.5488 67.6309 22.2227 67.1699 21.8047C66.7129 21.3867 66.3574 20.8887 66.1035 20.3105C65.8496 19.7285 65.7227 19.0898 65.7227 18.3945ZM67.5801 18.3945C67.5801 18.8672 67.6641 19.293 67.832 19.6719C68.0039 20.0508 68.2402 20.375 68.541 20.6445C68.8457 20.9102 69.2031 21.1152 69.6133 21.2598C70.0273 21.4043 70.4766 21.4766 70.9609 21.4766C71.4453 21.4766 71.8926 21.4043 72.3027 21.2598C72.7168 21.1152 73.0742 20.9102 73.375 20.6445C73.6758 20.375 73.9121 20.0508 74.084 19.6719C74.2559 19.293 74.3418 18.8672 74.3418 18.3945C74.3418 17.9219 74.2559 17.498 74.084 17.123C73.9121 16.748 73.6758 16.4316 73.375 16.1738C73.0742 15.9121 72.7168 15.7129 72.3027 15.5762C71.8926 15.4395 71.4453 15.3711 70.9609 15.3711C70.4766 15.3711 70.0273 15.4395 69.6133 15.5762C69.2031 15.7129 68.8457 15.9121 68.541 16.1738C68.2402 16.4316 68.0039 16.748 67.832 17.123C67.6641 17.498 67.5801 17.9219 67.5801 18.3945ZM77.0371 13.8418H79.0938L81.9707 20.8262L84.8477 13.8418H86.9043L82.8906 23H81.0508L77.0371 13.8418ZM88.0469 13.8418H89.916V23H88.0469V13.8418ZM92.2891 13.8418H100.088V15.4707H94.1465V17.2988H99.4082V18.8281H94.1465V21.377H100.211V23H92.2891V13.8418Z" fill="#F44336"/>
</svg>
